<mxfile host="app.diagrams.net" modified="2022-06-22T08:51:49.335Z" agent="5.0 (Windows NT 10.0; Win64; x64) AppleWebKit/537.36 (KHTML, like Gecko) Chrome/92.0.4515.107 Safari/537.36" etag="pb-7s-y_OG00d4xpnelb" version="18.2.0" type="github">
  <diagram id="gu9Jc89tBkRy9AyzQ6SC" name="Page-1">
    <mxGraphModel dx="1865" dy="547" grid="1" gridSize="10" guides="1" tooltips="1" connect="1" arrows="1" fold="1" page="1" pageScale="1" pageWidth="827" pageHeight="1169" math="0" shadow="0">
      <root>
        <mxCell id="0" />
        <mxCell id="1" parent="0" />
        <mxCell id="TTPkT1dYeZcgW2XzIwEa-1" value="大数据系统" style="rounded=1;whiteSpace=wrap;html=1;" vertex="1" parent="1">
          <mxGeometry x="70" y="160" width="120" height="60" as="geometry" />
        </mxCell>
        <mxCell id="TTPkT1dYeZcgW2XzIwEa-2" value="CRM系统" style="rounded=1;whiteSpace=wrap;html=1;" vertex="1" parent="1">
          <mxGeometry x="230" y="160" width="120" height="60" as="geometry" />
        </mxCell>
        <mxCell id="TTPkT1dYeZcgW2XzIwEa-3" value="集中作业平台系统" style="rounded=1;whiteSpace=wrap;html=1;" vertex="1" parent="1">
          <mxGeometry x="390" y="160" width="120" height="60" as="geometry" />
        </mxCell>
        <mxCell id="TTPkT1dYeZcgW2XzIwEa-4" value="贷后预警系统" style="rounded=1;whiteSpace=wrap;html=1;" vertex="1" parent="1">
          <mxGeometry x="550" y="160" width="120" height="60" as="geometry" />
        </mxCell>
        <mxCell id="TTPkT1dYeZcgW2XzIwEa-5" value="FTP文件服务器" style="rounded=1;whiteSpace=wrap;html=1;" vertex="1" parent="1">
          <mxGeometry x="20" y="320" width="120" height="60" as="geometry" />
        </mxCell>
        <mxCell id="TTPkT1dYeZcgW2XzIwEa-6" value="" style="endArrow=classic;html=1;rounded=0;exitX=0.5;exitY=1;exitDx=0;exitDy=0;entryX=0.363;entryY=-0.053;entryDx=0;entryDy=0;entryPerimeter=0;" edge="1" parent="1" source="TTPkT1dYeZcgW2XzIwEa-1" target="TTPkT1dYeZcgW2XzIwEa-5">
          <mxGeometry width="50" height="50" relative="1" as="geometry">
            <mxPoint x="100" y="230" as="sourcePoint" />
            <mxPoint x="90" y="320" as="targetPoint" />
          </mxGeometry>
        </mxCell>
        <mxCell id="TTPkT1dYeZcgW2XzIwEa-7" value="" style="endArrow=classic;html=1;rounded=0;entryX=0.563;entryY=-0.067;entryDx=0;entryDy=0;entryPerimeter=0;" edge="1" parent="1" target="TTPkT1dYeZcgW2XzIwEa-5">
          <mxGeometry width="50" height="50" relative="1" as="geometry">
            <mxPoint x="290" y="220" as="sourcePoint" />
            <mxPoint x="90" y="310" as="targetPoint" />
          </mxGeometry>
        </mxCell>
        <mxCell id="TTPkT1dYeZcgW2XzIwEa-8" value="" style="endArrow=classic;html=1;rounded=0;exitX=0.5;exitY=1;exitDx=0;exitDy=0;entryX=0.81;entryY=-0.053;entryDx=0;entryDy=0;entryPerimeter=0;" edge="1" parent="1" source="TTPkT1dYeZcgW2XzIwEa-3" target="TTPkT1dYeZcgW2XzIwEa-5">
          <mxGeometry width="50" height="50" relative="1" as="geometry">
            <mxPoint x="292.79999999999995" y="233.17999999999995" as="sourcePoint" />
            <mxPoint x="98" y="310" as="targetPoint" />
          </mxGeometry>
        </mxCell>
        <mxCell id="TTPkT1dYeZcgW2XzIwEa-9" value="" style="endArrow=classic;html=1;rounded=0;entryX=1;entryY=0;entryDx=0;entryDy=0;exitX=0.5;exitY=1;exitDx=0;exitDy=0;" edge="1" parent="1" source="TTPkT1dYeZcgW2XzIwEa-4" target="TTPkT1dYeZcgW2XzIwEa-5">
          <mxGeometry width="50" height="50" relative="1" as="geometry">
            <mxPoint x="302.79999999999995" y="243.17999999999995" as="sourcePoint" />
            <mxPoint x="107.55999999999995" y="339.22" as="targetPoint" />
          </mxGeometry>
        </mxCell>
        <mxCell id="TTPkT1dYeZcgW2XzIwEa-10" value="客服系统网关" style="rounded=1;whiteSpace=wrap;html=1;" vertex="1" parent="1">
          <mxGeometry x="260" y="320" width="400" height="60" as="geometry" />
        </mxCell>
        <mxCell id="TTPkT1dYeZcgW2XzIwEa-11" value="" style="endArrow=classic;startArrow=classic;html=1;rounded=0;" edge="1" parent="1">
          <mxGeometry width="50" height="50" relative="1" as="geometry">
            <mxPoint x="470" y="320" as="sourcePoint" />
            <mxPoint x="600" y="220" as="targetPoint" />
          </mxGeometry>
        </mxCell>
        <mxCell id="TTPkT1dYeZcgW2XzIwEa-12" value="" style="endArrow=classic;startArrow=classic;html=1;rounded=0;entryX=0.5;entryY=1;entryDx=0;entryDy=0;exitX=0.475;exitY=0;exitDx=0;exitDy=0;exitPerimeter=0;" edge="1" parent="1" source="TTPkT1dYeZcgW2XzIwEa-10" target="TTPkT1dYeZcgW2XzIwEa-3">
          <mxGeometry width="50" height="50" relative="1" as="geometry">
            <mxPoint x="480" y="330" as="sourcePoint" />
            <mxPoint x="610" y="230" as="targetPoint" />
          </mxGeometry>
        </mxCell>
        <mxCell id="TTPkT1dYeZcgW2XzIwEa-13" value="" style="endArrow=classic;startArrow=classic;html=1;rounded=0;entryX=0.5;entryY=1;entryDx=0;entryDy=0;exitX=0.419;exitY=0.013;exitDx=0;exitDy=0;exitPerimeter=0;" edge="1" parent="1" source="TTPkT1dYeZcgW2XzIwEa-10" target="TTPkT1dYeZcgW2XzIwEa-2">
          <mxGeometry width="50" height="50" relative="1" as="geometry">
            <mxPoint x="480" y="330" as="sourcePoint" />
            <mxPoint x="610" y="230" as="targetPoint" />
          </mxGeometry>
        </mxCell>
        <mxCell id="TTPkT1dYeZcgW2XzIwEa-14" value="外拨子系统" style="rounded=1;whiteSpace=wrap;html=1;" vertex="1" parent="1">
          <mxGeometry x="459" y="450" width="120" height="60" as="geometry" />
        </mxCell>
        <mxCell id="TTPkT1dYeZcgW2XzIwEa-15" value="集团端软电话系统" style="rounded=1;whiteSpace=wrap;html=1;" vertex="1" parent="1">
          <mxGeometry x="790" y="390" width="60" height="300" as="geometry" />
        </mxCell>
        <mxCell id="TTPkT1dYeZcgW2XzIwEa-16" value="" style="endArrow=classic;startArrow=classic;html=1;rounded=0;exitX=1;exitY=0.5;exitDx=0;exitDy=0;" edge="1" parent="1" source="TTPkT1dYeZcgW2XzIwEa-14">
          <mxGeometry width="50" height="50" relative="1" as="geometry">
            <mxPoint x="530" y="530" as="sourcePoint" />
            <mxPoint x="790" y="550" as="targetPoint" />
          </mxGeometry>
        </mxCell>
        <mxCell id="TTPkT1dYeZcgW2XzIwEa-17" value="" style="endArrow=classic;startArrow=classic;html=1;rounded=0;" edge="1" parent="1">
          <mxGeometry width="50" height="50" relative="1" as="geometry">
            <mxPoint x="519" y="449" as="sourcePoint" />
            <mxPoint x="519" y="389" as="targetPoint" />
          </mxGeometry>
        </mxCell>
        <mxCell id="TTPkT1dYeZcgW2XzIwEa-18" value="数据库" style="shape=cylinder3;whiteSpace=wrap;html=1;boundedLbl=1;backgroundOutline=1;size=15;" vertex="1" parent="1">
          <mxGeometry x="130" y="404" width="60" height="286" as="geometry" />
        </mxCell>
        <mxCell id="TTPkT1dYeZcgW2XzIwEa-19" value="" style="endArrow=classic;html=1;rounded=0;exitX=0;exitY=0.5;exitDx=0;exitDy=0;entryX=1;entryY=0.5;entryDx=0;entryDy=0;entryPerimeter=0;" edge="1" parent="1" target="TTPkT1dYeZcgW2XzIwEa-18">
          <mxGeometry width="50" height="50" relative="1" as="geometry">
            <mxPoint x="459" y="476" as="sourcePoint" />
            <mxPoint x="190" y="496" as="targetPoint" />
          </mxGeometry>
        </mxCell>
        <mxCell id="TTPkT1dYeZcgW2XzIwEa-20" value="95177-8" style="rounded=1;whiteSpace=wrap;html=1;" vertex="1" parent="1">
          <mxGeometry x="760" y="160" width="120" height="60" as="geometry" />
        </mxCell>
        <mxCell id="TTPkT1dYeZcgW2XzIwEa-21" value="" style="endArrow=classic;html=1;rounded=0;exitX=0.5;exitY=1;exitDx=0;exitDy=0;entryX=0.5;entryY=0;entryDx=0;entryDy=0;" edge="1" parent="1" source="TTPkT1dYeZcgW2XzIwEa-20" target="TTPkT1dYeZcgW2XzIwEa-15">
          <mxGeometry width="50" height="50" relative="1" as="geometry">
            <mxPoint x="390" y="350" as="sourcePoint" />
            <mxPoint x="440" y="300" as="targetPoint" />
          </mxGeometry>
        </mxCell>
        <mxCell id="TTPkT1dYeZcgW2XzIwEa-22" value="业务子系统" style="rounded=1;whiteSpace=wrap;html=1;" vertex="1" parent="1">
          <mxGeometry x="459" y="670" width="120" height="60" as="geometry" />
        </mxCell>
        <mxCell id="TTPkT1dYeZcgW2XzIwEa-23" value="" style="endArrow=classic;startArrow=classic;html=1;rounded=0;exitX=1;exitY=0.5;exitDx=0;exitDy=0;entryX=-0.01;entryY=0.667;entryDx=0;entryDy=0;entryPerimeter=0;" edge="1" parent="1" source="TTPkT1dYeZcgW2XzIwEa-22" target="TTPkT1dYeZcgW2XzIwEa-15">
          <mxGeometry width="50" height="50" relative="1" as="geometry">
            <mxPoint x="589" y="490" as="sourcePoint" />
            <mxPoint x="780" y="600" as="targetPoint" />
          </mxGeometry>
        </mxCell>
        <mxCell id="TTPkT1dYeZcgW2XzIwEa-24" value="核心系统" style="rounded=1;whiteSpace=wrap;html=1;" vertex="1" parent="1">
          <mxGeometry x="110" y="834" width="120" height="60" as="geometry" />
        </mxCell>
        <mxCell id="TTPkT1dYeZcgW2XzIwEa-25" value="额度系统" style="rounded=1;whiteSpace=wrap;html=1;" vertex="1" parent="1">
          <mxGeometry x="670" y="834" width="120" height="60" as="geometry" />
        </mxCell>
        <mxCell id="TTPkT1dYeZcgW2XzIwEa-26" value="名单系统" style="rounded=1;whiteSpace=wrap;html=1;" vertex="1" parent="1">
          <mxGeometry x="530" y="834" width="120" height="60" as="geometry" />
        </mxCell>
        <mxCell id="TTPkT1dYeZcgW2XzIwEa-27" value="贷款系统" style="rounded=1;whiteSpace=wrap;html=1;" vertex="1" parent="1">
          <mxGeometry x="390" y="834" width="120" height="60" as="geometry" />
        </mxCell>
        <mxCell id="TTPkT1dYeZcgW2XzIwEa-28" value="用户中心系统" style="rounded=1;whiteSpace=wrap;html=1;" vertex="1" parent="1">
          <mxGeometry x="250" y="834" width="120" height="60" as="geometry" />
        </mxCell>
        <mxCell id="TTPkT1dYeZcgW2XzIwEa-29" value="。。。" style="rounded=1;whiteSpace=wrap;html=1;" vertex="1" parent="1">
          <mxGeometry x="810" y="834" width="120" height="60" as="geometry" />
        </mxCell>
        <mxCell id="TTPkT1dYeZcgW2XzIwEa-30" value="" style="endArrow=none;html=1;rounded=0;dashed=1;strokeColor=#666666;" edge="1" parent="1">
          <mxGeometry width="50" height="50" relative="1" as="geometry">
            <mxPoint x="-130" y="250" as="sourcePoint" />
            <mxPoint x="970" y="250" as="targetPoint" />
          </mxGeometry>
        </mxCell>
        <mxCell id="TTPkT1dYeZcgW2XzIwEa-31" value="工单子系统" style="rounded=1;whiteSpace=wrap;html=1;" vertex="1" parent="1">
          <mxGeometry x="459" y="555" width="120" height="60" as="geometry" />
        </mxCell>
        <mxCell id="TTPkT1dYeZcgW2XzIwEa-32" value="" style="endArrow=classic;html=1;rounded=0;exitX=0;exitY=0.5;exitDx=0;exitDy=0;entryX=1.003;entryY=0.57;entryDx=0;entryDy=0;entryPerimeter=0;" edge="1" parent="1" source="TTPkT1dYeZcgW2XzIwEa-31" target="TTPkT1dYeZcgW2XzIwEa-18">
          <mxGeometry width="50" height="50" relative="1" as="geometry">
            <mxPoint x="450" y="590" as="sourcePoint" />
            <mxPoint x="200" y="573" as="targetPoint" />
          </mxGeometry>
        </mxCell>
        <mxCell id="TTPkT1dYeZcgW2XzIwEa-33" value="" style="endArrow=classic;html=1;rounded=0;exitX=0;exitY=0.5;exitDx=0;exitDy=0;entryX=1.03;entryY=0.629;entryDx=0;entryDy=0;entryPerimeter=0;" edge="1" parent="1" source="TTPkT1dYeZcgW2XzIwEa-22" target="TTPkT1dYeZcgW2XzIwEa-18">
          <mxGeometry width="50" height="50" relative="1" as="geometry">
            <mxPoint x="469" y="595" as="sourcePoint" />
            <mxPoint x="210" y="583" as="targetPoint" />
          </mxGeometry>
        </mxCell>
        <mxCell id="TTPkT1dYeZcgW2XzIwEa-34" value="" style="endArrow=classic;startArrow=classic;html=1;rounded=0;exitX=1;exitY=0.5;exitDx=0;exitDy=0;entryX=0;entryY=0.6;entryDx=0;entryDy=0;entryPerimeter=0;" edge="1" parent="1" source="TTPkT1dYeZcgW2XzIwEa-31" target="TTPkT1dYeZcgW2XzIwEa-15">
          <mxGeometry width="50" height="50" relative="1" as="geometry">
            <mxPoint x="589" y="490" as="sourcePoint" />
            <mxPoint x="797" y="568.3" as="targetPoint" />
          </mxGeometry>
        </mxCell>
        <mxCell id="TTPkT1dYeZcgW2XzIwEa-35" value="" style="endArrow=classic;startArrow=classic;html=1;rounded=0;exitX=0.5;exitY=0;exitDx=0;exitDy=0;entryX=0.167;entryY=1.003;entryDx=0;entryDy=0;entryPerimeter=0;" edge="1" parent="1" source="TTPkT1dYeZcgW2XzIwEa-24" target="TTPkT1dYeZcgW2XzIwEa-22">
          <mxGeometry width="50" height="50" relative="1" as="geometry">
            <mxPoint x="589" y="710" as="sourcePoint" />
            <mxPoint x="799.4000000000001" y="600.0999999999999" as="targetPoint" />
          </mxGeometry>
        </mxCell>
        <mxCell id="TTPkT1dYeZcgW2XzIwEa-36" value="" style="endArrow=classic;startArrow=classic;html=1;rounded=0;" edge="1" parent="1">
          <mxGeometry width="50" height="50" relative="1" as="geometry">
            <mxPoint x="310" y="830" as="sourcePoint" />
            <mxPoint x="490" y="730" as="targetPoint" />
          </mxGeometry>
        </mxCell>
        <mxCell id="TTPkT1dYeZcgW2XzIwEa-37" value="" style="endArrow=classic;startArrow=classic;html=1;rounded=0;exitX=0.5;exitY=0;exitDx=0;exitDy=0;entryX=0.4;entryY=1.03;entryDx=0;entryDy=0;entryPerimeter=0;" edge="1" parent="1" source="TTPkT1dYeZcgW2XzIwEa-27" target="TTPkT1dYeZcgW2XzIwEa-22">
          <mxGeometry width="50" height="50" relative="1" as="geometry">
            <mxPoint x="450" y="830" as="sourcePoint" />
            <mxPoint x="500" y="730" as="targetPoint" />
          </mxGeometry>
        </mxCell>
        <mxCell id="TTPkT1dYeZcgW2XzIwEa-38" value="" style="endArrow=classic;startArrow=classic;html=1;rounded=0;exitX=0.5;exitY=0;exitDx=0;exitDy=0;" edge="1" parent="1" source="TTPkT1dYeZcgW2XzIwEa-26">
          <mxGeometry width="50" height="50" relative="1" as="geometry">
            <mxPoint x="330" y="850" as="sourcePoint" />
            <mxPoint x="520" y="730" as="targetPoint" />
          </mxGeometry>
        </mxCell>
        <mxCell id="TTPkT1dYeZcgW2XzIwEa-39" value="" style="endArrow=classic;startArrow=classic;html=1;rounded=0;entryX=0.693;entryY=1.03;entryDx=0;entryDy=0;exitX=0.5;exitY=0;exitDx=0;exitDy=0;entryPerimeter=0;" edge="1" parent="1" source="TTPkT1dYeZcgW2XzIwEa-25" target="TTPkT1dYeZcgW2XzIwEa-22">
          <mxGeometry width="50" height="50" relative="1" as="geometry">
            <mxPoint x="600" y="844" as="sourcePoint" />
            <mxPoint x="522.6399999999999" y="742.5799999999999" as="targetPoint" />
          </mxGeometry>
        </mxCell>
        <mxCell id="TTPkT1dYeZcgW2XzIwEa-40" value="" style="endArrow=classic;startArrow=classic;html=1;rounded=0;entryX=0.833;entryY=1.07;entryDx=0;entryDy=0;entryPerimeter=0;exitX=0.5;exitY=0;exitDx=0;exitDy=0;" edge="1" parent="1" source="TTPkT1dYeZcgW2XzIwEa-29" target="TTPkT1dYeZcgW2XzIwEa-22">
          <mxGeometry width="50" height="50" relative="1" as="geometry">
            <mxPoint x="610" y="854" as="sourcePoint" />
            <mxPoint x="532.6399999999999" y="752.5799999999999" as="targetPoint" />
          </mxGeometry>
        </mxCell>
      </root>
    </mxGraphModel>
  </diagram>
</mxfile>
